<svg xmlns="http://www.w3.org/2000/svg">
<style>
:root svg:not(:target) {
  display: none;
}
</style>
<svg width="79" height="4" viewBox="0 0 79 4" fill="none" id="logo-line" xmlns="http://www.w3.org/2000/svg">
<path d="M78.6473 2.31856C77.0473 1.71856 75.3473 1.71856 73.7473 1.51856C72.1473 1.31856 70.5473 1.11856 68.8473 0.918556C67.2473 1.01856 65.5473 0.918559 63.8473 1.01856L58.9473 1.31856C52.4473 1.61856 45.9473 1.61856 39.4473 1.41856C32.9473 1.31856 26.4473 0.918556 19.8473 0.918556C16.5473 0.918556 13.2473 1.01856 9.94733 1.21856C8.34733 1.51856 6.74733 1.71856 5.04733 2.11856C3.44733 2.51856 1.94733 3.01856 0.24733 3.11856C1.84733 3.51856 3.54733 3.41856 5.24733 3.41856C6.84733 3.41856 8.44733 3.51856 10.1473 3.61856C13.3473 3.41856 16.6473 3.41856 19.8473 3.31856C26.3473 3.31856 32.8473 3.61856 39.4473 3.81856C45.9473 3.91856 52.5473 4.01856 59.1473 3.71856L64.0473 3.41856C65.6473 3.31856 67.2473 3.31856 68.8473 3.31856C70.4473 3.21856 72.1473 3.01856 73.7473 2.81856C75.4473 2.61856 76.9473 2.21856 78.6473 2.31856H78.7473V2.21856C78.7473 2.01856 78.7473 1.91856 78.7473 1.71856C78.7473 2.11856 78.7473 2.21856 78.6473 2.31856Z" fill="black"/>
</svg>
<svg width="20" height="14" viewBox="0 0 20 14" fill="none" id="icon-menu" xmlns="http://www.w3.org/2000/svg">
<path d="M20 0H0V2H20V0Z" fill="#231F20"/>
<path d="M20 6H0V8H20V6Z" fill="#231F20"/>
<path d="M20 12H0V14H20V12Z" fill="#231F20"/>
</svg>
<svg width="21" height="20" viewBox="0 0 21 20" fill="none" id="icon-menu-close" xmlns="http://www.w3.org/2000/svg">
<path d="M21 1.36585L19.5659 0L10.5512 8.58537L1.43415 0L0 1.36585L9.01463 10.0488L0 18.6341L1.43415 20L10.5512 11.4146L19.5659 20L21 18.6341L11.9854 10.0488L21 1.36585Z" fill="black"/>
</svg>
<svg width="18" height="18" viewBox="0 0 18 18" fill="none" id="search" xmlns="http://www.w3.org/2000/svg">
<path d="M17.6932 16.0568L14.2159 12.5795C15.2386 11.25 15.75 9.61364 15.75 7.875C15.75 3.47727 12.2727 0 7.875 0C3.47727 0 0 3.47727 0 7.875C0 12.2727 3.47727 15.75 7.875 15.75C9.61364 15.75 11.25 15.1364 12.5795 14.2159L16.0568 17.6932C16.2614 17.8977 16.4659 18 16.875 18C17.4886 18 18 17.4886 18 16.875C18 16.6705 17.8977 16.3636 17.6932 16.0568ZM2.25 7.875C2.25 4.80682 4.80682 2.25 7.875 2.25C10.9432 2.25 13.5 4.80682 13.5 7.875C13.5 10.9432 10.9432 13.5 7.875 13.5C4.80682 13.5 2.25 10.9432 2.25 7.875Z" fill="black"/>
</svg>
<svg width="21" height="18" viewBox="0 0 21 18" fill="none" id="cart" xmlns="http://www.w3.org/2000/svg">
<path d="M20.1884 6.85716H16.6377L13.1884 0.380944C12.9855 -8.61287e-06 12.5797 -0.0952351 12.1739 0.0952412C11.7681 0.285717 11.6667 0.66667 11.8696 1.04762L15.0145 6.85716H5.7826L8.92753 1.04762C9.13043 0.66667 8.92754 0.285717 8.6232 0.0952412C8.2174 -0.0952351 7.8116 0.0952295 7.6087 0.380944L4.1594 6.85716H0.811583C0.405785 6.85716 0 7.14286 0 7.61905C0 8 0.304336 8.38094 0.811583 8.38094H1.01449L1.92753 11.2381C1.72463 11.3333 1.62317 11.5238 1.62317 11.8095C1.62317 12.1905 1.92753 12.4762 2.33332 12.4762L4.05797 18H16.942L18.6667 12.4762C19.0725 12.4762 19.3768 12.1905 19.3768 11.8095C19.3768 11.619 19.2754 11.3333 19.0725 11.2381L19.9855 8.38094H20.1884C20.5942 8.38094 21 8.09524 21 7.61905C21 7.14286 20.5942 6.85716 20.1884 6.85716ZM15.6232 16.4762H5.07247L3.85506 12.381H16.942L15.6232 16.4762ZM17.2464 10.9524H3.34782L2.53623 8.28573H18.058L17.2464 10.9524Z" fill="black"/>
</svg>
<svg width="40" height="62" viewBox="0 0 40 62" fill="none" id="interior-mob" xmlns="http://www.w3.org/2000/svg">
<path d="M15.162 37.7167C14.8627 38.7119 14.9625 39.9061 15.162 41.2994C15.6607 43.8869 16.8577 47.2705 17.556 50.9527H22.6433C23.3415 47.3701 24.5385 43.9864 25.137 41.2994C25.4363 39.9061 25.4363 38.6124 25.137 37.7167C24.8378 36.821 24.2393 36.1244 23.142 35.4277H17.157C15.96 36.1244 15.3615 36.821 15.162 37.7167Z" fill="#149080"/>
<path d="M26.9327 57.6211H13.1671C11.8703 57.6211 10.8728 58.6163 10.8728 59.8105V61.9999H13.1671H26.9327H29.2269V59.8105C29.2269 58.6163 28.2294 57.6211 26.9327 57.6211Z" fill="#149080"/>
<path d="M34.015 2.18943H22.3441C22.3441 0.995194 21.3466 0 20.0499 0C18.7531 0 17.7556 0.995194 17.7556 2.18943H6.08478L0 27.5668C0.798005 27.0693 1.59602 26.5717 2.59352 26.5717C3.99003 26.5717 4.78803 27.3678 5.48629 27.9649C6.18454 28.562 6.68329 28.7611 6.88279 28.7611C7.18204 28.7611 7.68079 28.4625 8.37905 27.9649C9.0773 27.4673 9.97505 26.5717 11.2718 26.5717C12.5686 26.5717 13.4663 27.3678 14.1646 27.9649C14.8628 28.4625 15.3616 28.7611 15.6608 28.7611C15.7606 28.7611 15.9601 28.6616 16.2593 28.562C16.4588 28.4625 16.7581 28.164 17.1571 27.9649C17.6559 27.5668 18.2544 26.9697 19.1521 26.7707C19.4514 26.6712 19.7506 26.6712 20.0499 26.6712C21.3466 26.6712 22.2444 27.4673 22.9426 28.0644C23.6409 28.562 24.1397 28.8606 24.4389 28.8606C24.7382 28.8606 25.2369 28.562 25.8354 28.0644C26.5337 27.4673 27.4314 26.6712 28.7282 26.6712C30.1247 26.6712 30.9227 27.4673 31.621 28.0644C31.9202 28.363 32.2194 28.562 32.5187 28.6616C32.7182 28.7611 32.9177 28.8606 33.1172 28.8606C33.4165 28.8606 33.9152 28.562 34.5137 27.9649C35.212 27.3678 36.1097 26.5717 37.4065 26.5717C38.404 26.5717 39.202 27.0693 40 27.5668L34.015 2.18943Z" fill="#149080"/>
<path d="M23.4415 53.1426H16.5587C15.8604 53.1426 15.4614 53.6402 15.4614 54.2373C15.4614 54.8344 15.9602 55.332 16.5587 55.332H23.4415C24.1397 55.332 24.5387 54.8344 24.5387 54.2373C24.6385 53.6402 24.1397 53.1426 23.4415 53.1426Z" fill="#149080"/>
<path d="M20.0499 28.7598C19.9501 28.7598 19.7506 28.8593 19.4514 28.9588C19.2519 29.0583 19.0524 29.2574 18.8529 29.3569V33.0391H21.1471V29.4564C20.6484 29.0583 20.2494 28.7598 20.0499 28.7598Z" fill="#149080"/>
</svg>
<svg width="41" height="62" viewBox="0 0 41 62" fill="none" id="interior-tab" xmlns="http://www.w3.org/2000/svg">
<path d="M15.5024 37.6564C15.1965 38.65 15.2985 39.8423 15.5024 41.2333C16.0124 43.8167 17.2363 47.1949 17.9502 50.8712H23.1517C23.8656 47.2942 25.0895 43.916 25.7014 41.2333C26.0074 39.8423 26.0074 38.5506 25.7014 37.6564C25.3955 36.7622 24.7835 36.0667 23.6616 35.3712H17.5422C16.3184 36.0667 15.7064 36.7622 15.5024 37.6564Z" fill="#149080"/>
<path d="M27.5373 57.5282H13.4627C12.1368 57.5282 11.1169 58.5218 11.1169 59.7141V61.9H13.4627H27.5373H29.8831V59.7141C29.8831 58.5218 28.8632 57.5282 27.5373 57.5282Z" fill="#149080"/>
<path d="M34.7786 2.1859H22.8458C22.8458 0.99359 21.8259 0 20.5 0C19.1741 0 18.1542 0.99359 18.1542 2.1859H6.22138L0 27.5224C0.81592 27.0256 1.63185 26.5288 2.65175 26.5288C4.07961 26.5288 4.89552 27.3237 5.60945 27.9199C6.32338 28.516 6.83333 28.7147 7.03731 28.7147C7.34328 28.7147 7.85323 28.4167 8.56716 27.9199C9.28109 27.4231 10.199 26.5288 11.5249 26.5288C12.8507 26.5288 13.7687 27.3237 14.4826 27.9199C15.1965 28.4167 15.7065 28.7147 16.0124 28.7147C16.1144 28.7147 16.3184 28.6154 16.6244 28.516C16.8283 28.4167 17.1343 28.1186 17.5423 27.9199C18.0522 27.5224 18.6642 26.9263 19.5821 26.7276C19.8881 26.6282 20.194 26.6282 20.5 26.6282C21.8259 26.6282 22.7438 27.4231 23.4577 28.0192C24.1716 28.516 24.6816 28.8141 24.9876 28.8141C25.2935 28.8141 25.8035 28.516 26.4154 28.0192C27.1293 27.4231 28.0472 26.6282 29.3731 26.6282C30.801 26.6282 31.6169 27.4231 32.3308 28.0192C32.6368 28.3173 32.9428 28.516 33.2487 28.6154C33.4527 28.7147 33.6567 28.8141 33.8607 28.8141C34.1667 28.8141 34.6766 28.516 35.2885 27.9199C36.0025 27.3237 36.9204 26.5288 38.2463 26.5288C39.2662 26.5288 40.0821 27.0256 40.898 27.5224L34.7786 2.1859Z" fill="#149080"/>
<path d="M23.9677 53.0571H16.9304C16.2164 53.0571 15.8085 53.5539 15.8085 54.15C15.8085 54.7462 16.3184 55.243 16.9304 55.243H23.9677C24.6816 55.243 25.0896 54.7462 25.0896 54.15C25.1915 53.5539 24.6816 53.0571 23.9677 53.0571Z" fill="#149080"/>
<path d="M20.5 28.7141C20.398 28.7141 20.194 28.8135 19.8881 28.9128C19.6841 29.0122 19.4801 29.2109 19.2761 29.3103V32.9865H21.6219V29.4096C21.1119 29.0122 20.704 28.7141 20.5 28.7141Z" fill="#149080"/>
</svg>
<svg width="60" height="60" viewBox="0 0 60 60" fill="none" id="toys-mob" xmlns="http://www.w3.org/2000/svg">
<path d="M0 43.9933L27.4 60V36.5436L0 20.4362V43.9933ZM51.3 12.4832V15C51.3 16.8121 47.8 18.3221 43.6 18.3221C39.3 18.3221 35.9 16.8121 35.9 15V10.8725C36.2 12.5839 39.5 13.9933 43.6 13.9933C47.9 13.9933 51.3 12.4832 51.3 10.6711C51.3 8.85907 47.8 7.349 43.6 7.349C43.3 7.349 42.9 7.349 42.6 7.349L37.6 4.42954V7.55034C37.6 9.36242 34.1 10.8725 29.9 10.8725C27.2 10.8725 24.9 10.2685 23.5 9.36242C23.3 9.16108 23.1 8.95973 22.8 8.75839C22.4 8.3557 22.2 7.95302 22.2 7.55034V4.5302L17.4 7.349C17.1 7.349 16.7 7.349 16.3 7.349C12 7.349 8.60001 8.85907 8.60001 10.6711C8.60001 12.4832 12.1 13.9933 16.3 13.9933C20.4 13.9933 23.7 12.5839 24 10.8725V15C24 16.8121 20.5 18.3221 16.3 18.3221C12 18.3221 8.60001 16.8121 8.60001 15V12.5839L2.60001 16.1074L30.1 32.2148L57.5 16.2081L51.3 12.4832ZM37.7 22.7517C37.7 24.5638 34.2 26.0738 30 26.0738C25.7 26.0738 22.3 24.5638 22.3 22.7517V18.6242C22.6 20.3356 25.9 21.745 30 21.745C34.1 21.745 37.4 20.3356 37.7 18.6242V22.7517ZM32.6 36.745V60L60 43.9933V20.7383L32.6 36.745ZM29.9 6.6443C34.2 6.6443 37.6 5.13423 37.6 3.32215C37.6 1.51007 34.1 0 29.9 0C25.6 0 22.2 1.51007 22.2 3.32215C22.2 5.13423 25.6 6.6443 29.9 6.6443Z" fill="#149080"/>
</svg>
<svg width="61" height="61" viewBox="0 0 61 61" fill="none" id="toys-tab" xmlns="http://www.w3.org/2000/svg">
<path d="M0 44.7265L27.8567 61V37.1527L0 20.7769V44.7265ZM52.155 12.6913V15.25C52.155 17.0923 48.5967 18.6275 44.3267 18.6275C39.955 18.6275 36.4983 17.0923 36.4983 15.25V11.0537C36.8033 12.7936 40.1583 14.2265 44.3267 14.2265C48.6983 14.2265 52.155 12.6913 52.155 10.849C52.155 9.00672 48.5967 7.47148 44.3267 7.47148C44.0217 7.47148 43.615 7.47148 43.31 7.47148L38.2267 4.50337V7.67618C38.2267 9.51846 34.6683 11.0537 30.3983 11.0537C27.6533 11.0537 25.315 10.4396 23.8917 9.51846C23.6883 9.31376 23.485 9.10906 23.18 8.90436C22.7733 8.49496 22.57 8.08557 22.57 7.67618V4.60571L17.69 7.47148C17.385 7.47148 16.9783 7.47148 16.5717 7.47148C12.2 7.47148 8.74334 9.00672 8.74334 10.849C8.74334 12.6913 12.3017 14.2265 16.5717 14.2265C20.74 14.2265 24.095 12.7936 24.4 11.0537V15.25C24.4 17.0923 20.8417 18.6275 16.5717 18.6275C12.2 18.6275 8.74334 17.0923 8.74334 15.25V12.7936L2.64334 16.3758L30.6017 32.7517L58.4583 16.4782L52.155 12.6913ZM38.3283 23.1309C38.3283 24.9732 34.77 26.5084 30.5 26.5084C26.1283 26.5084 22.6717 24.9732 22.6717 23.1309V18.9346C22.9767 20.6745 26.3317 22.1074 30.5 22.1074C34.6683 22.1074 38.0233 20.6745 38.3283 18.9346V23.1309ZM33.1433 37.3574V61L61 44.7265V21.0839L33.1433 37.3574ZM30.3983 6.75504C34.77 6.75504 38.2267 5.2198 38.2267 3.37752C38.2267 1.53524 34.6683 0 30.3983 0C26.0267 0 22.57 1.53524 22.57 3.37752C22.57 5.2198 26.0267 6.75504 30.3983 6.75504Z" fill="#149080"/>
</svg>
<svg width="60" height="61" viewBox="0 0 60 61" fill="none" id="toys-desk" xmlns="http://www.w3.org/2000/svg">
<path d="M0 44.7265L27.4 61V37.1527L0 20.7768V44.7265ZM51.3 12.6913V15.25C51.3 17.0923 47.8 18.6275 43.6 18.6275C39.3 18.6275 35.9 17.0923 35.9 15.25V11.0537C36.2 12.7936 39.5 14.2265 43.6 14.2265C47.9 14.2265 51.3 12.6913 51.3 10.849C51.3 9.00672 47.8 7.47148 43.6 7.47148C43.3 7.47148 42.9 7.47148 42.6 7.47148L37.6 4.50337V7.67617C37.6 9.51846 34.1 11.0537 29.9 11.0537C27.2 11.0537 24.9 10.4396 23.5 9.51846C23.3 9.31376 23.1 9.10906 22.8 8.90436C22.4 8.49496 22.2 8.08557 22.2 7.67617V4.6057L17.4 7.47148C17.1 7.47148 16.7 7.47148 16.3 7.47148C12 7.47148 8.60001 9.00672 8.60001 10.849C8.60001 12.6913 12.1 14.2265 16.3 14.2265C20.4 14.2265 23.7 12.7936 24 11.0537V15.25C24 17.0923 20.5 18.6275 16.3 18.6275C12 18.6275 8.60001 17.0923 8.60001 15.25V12.7936L2.60001 16.3758L30.1 32.7517L57.5 16.4782L51.3 12.6913ZM37.7 23.1309C37.7 24.9732 34.2 26.5084 30 26.5084C25.7 26.5084 22.3 24.9732 22.3 23.1309V18.9346C22.6 20.6745 25.9 22.1074 30 22.1074C34.1 22.1074 37.4 20.6745 37.7 18.9346V23.1309ZM32.6 37.3574V61L60 44.7265V21.0839L32.6 37.3574ZM29.9 6.75504C34.2 6.75504 37.6 5.2198 37.6 3.37752C37.6 1.53524 34.1 0 29.9 0C25.6 0 22.2 1.53524 22.2 3.37752C22.2 5.2198 25.6 6.75504 29.9 6.75504Z" fill="#149080"/>
</svg>
<svg width="33" height="38" viewBox="0 0 33 38" fill="none" id="ecology" xmlns="http://www.w3.org/2000/svg">
<path d="M16.5 38C25.575 38 33 30.6452 33 21.6559C23.925 21.6559 16.5 28.9086 16.5 38ZM4.74375 16.6505C4.74375 19.2043 6.80625 21.1452 9.28125 21.1452C10.2094 21.1452 11.1375 20.8387 11.8594 20.328V20.6344C11.8594 23.1882 13.9219 25.129 16.3969 25.129C18.975 25.129 20.9344 23.086 20.9344 20.6344V20.328C21.6562 20.8387 22.5844 21.1452 23.5125 21.1452C26.0906 21.1452 28.05 19.1021 28.05 16.6505C28.05 14.8118 27.0188 13.2796 25.4719 12.5645C27.0188 11.8495 28.05 10.3172 28.05 8.47849C28.05 5.92473 25.9875 3.98387 23.5125 3.98387C22.5844 3.98387 21.6562 4.29032 20.9344 4.80107V4.49462C20.9344 1.94086 18.8719 0 16.3969 0C13.8187 0 11.8594 2.04301 11.8594 4.49462V4.80107C11.1375 4.29032 10.2094 3.98387 9.28125 3.98387C6.70312 3.98387 4.74375 6.02688 4.74375 8.47849C4.74375 10.3172 5.775 11.8495 7.32188 12.5645C5.87813 13.2796 4.74375 14.8118 4.74375 16.6505ZM16.5 7.96774C19.0781 7.96774 21.0375 10.0108 21.0375 12.4624C21.0375 15.0161 18.975 16.957 16.5 16.957C13.9219 16.957 11.9625 14.914 11.9625 12.4624C11.9625 10.0108 13.9219 7.96774 16.5 7.96774ZM0 21.6559C0 30.6452 7.425 38 16.5 38C16.5 28.9086 9.075 21.6559 0 21.6559Z" fill="#63D1BB"/>
</svg>
<svg width="47" height="27" viewBox="0 0 47 27" fill="none" id="money" xmlns="http://www.w3.org/2000/svg">
<path d="M43.0665 0H3.93347C1.71459 0 0 1.68132 0 3.85714V23.1429C0 25.3187 1.71459 27 3.93347 27H43.0665C45.2854 27 47 25.3187 47 23.1429V3.85714C47 1.78022 45.1845 0 43.0665 0ZM3.02575 24.7253V2.76923H43.5708V24.7253H3.02575Z" fill="#63D1BB"/>
<path d="M6.95925 20.8683H39.6374V6.62659H6.95925V20.8683ZM23.5 8.50571C26.4249 8.50571 28.8455 10.8793 28.8455 13.7475C28.8455 16.6156 26.4249 18.9892 23.5 18.9892C20.5751 18.9892 18.1545 16.6156 18.1545 13.7475C18.1545 10.7804 20.5751 8.50571 23.5 8.50571Z" fill="#63D1BB"/>
</svg>
<svg width="34" height="27" viewBox="0 0 34 27" fill="none" id="like" xmlns="http://www.w3.org/2000/svg">
<path d="M34 8.44964C34 3.78777 29.9818 0 25.0364 0C21.5333 0 18.5455 1.94245 17 4.66187C15.5576 1.94245 12.4667 0 8.96364 0C4.01818 0 0 3.78777 0 8.44964C0 17.2878 15.1455 27 17 27C18.9576 27 34 17.3849 34 8.44964Z" fill="#63D1BB"/>
</svg>
<svg width="35" height="34" viewBox="0 0 35 34" fill="none" id="ball" xmlns="http://www.w3.org/2000/svg">
<path d="M0.305558 13.9528C-0.101853 16.0303 -0.101853 18.1079 0.305558 20.1854L4.48152 17.0196L0.305558 13.9528Z" fill="#63D1BB"/>
<path d="M24.852 1.586C19.9631 -0.590493 14.2594 -0.590493 9.26857 1.98172L16.9075 7.52187L24.852 1.586Z" fill="#63D1BB"/>
<path d="M34.528 13.062L29.6391 16.7225L34.6299 20.3829C35.1392 18.0086 35.1392 15.4364 34.528 13.062Z" fill="#63D1BB"/>
<path d="M9.37046 32.057C14.2594 34.5303 20.2687 34.7281 25.3613 32.1559L17.1113 26.1211L9.37046 32.057Z" fill="#63D1BB"/>
<path d="M8.04639 14.2488L1.73152 9.698C1.42596 10.3905 1.1204 11.083 0.916698 11.7756L6.31489 15.7328L8.04639 14.2488Z" fill="#63D1BB"/>
<path d="M18.9446 24.8349L27.3983 30.9686C27.7039 30.7707 28.0095 30.5729 28.2132 30.375C28.5187 30.1772 28.8243 29.8804 29.1298 29.5836L20.6761 23.4498L18.9446 24.8349Z" fill="#63D1BB"/>
<path d="M11.6112 11.5781L4.07412 6.13684C3.56486 6.6315 3.15745 7.22509 2.75003 7.81867L9.77787 12.9631L11.6112 11.5781Z" fill="#63D1BB"/>
<path d="M22.5094 22.1635L30.7595 28.1983C31.2688 27.7036 31.6762 27.11 32.0836 26.5165L24.2409 20.7784L22.5094 22.1635Z" fill="#63D1BB"/>
<path d="M15.176 8.90696L7.33339 3.16895C7.12969 3.26788 6.92598 3.46574 6.72228 3.56467C6.31487 3.86146 5.90746 4.15826 5.6019 4.55398L13.4446 10.1931L15.176 8.90696Z" fill="#63D1BB"/>
<path d="M26.0743 19.3936L33.204 24.538C33.5095 23.8455 33.8151 23.2519 34.1206 22.5594L27.9076 18.0085L26.0743 19.3936Z" fill="#63D1BB"/>
<path d="M26.8891 2.67419L0.916698 22.3615C1.1204 23.054 1.42596 23.7466 1.73152 24.4391L28.7225 3.9603C28.2132 3.46564 27.6021 3.06992 26.8891 2.67419Z" fill="#63D1BB"/>
<path d="M31.2688 6.53234C30.9632 6.13661 30.6576 5.74089 30.3521 5.44409L2.85186 26.2197C3.05557 26.7143 3.36113 27.11 3.66669 27.4068C3.76854 27.6047 3.97224 27.8026 4.0741 27.9015L31.778 7.12592C31.5743 6.92806 31.4725 6.7302 31.2688 6.53234Z" fill="#63D1BB"/>
<path d="M32.8984 8.90674L5.70373 29.4844C6.21299 29.9791 6.82411 30.4738 7.43522 30.8695L33.9169 10.8854C33.6114 10.1928 33.3058 9.50033 32.8984 8.90674Z" fill="#63D1BB"/>
</svg>
<svg width="55" height="23" viewBox="0 0 55 23" fill="none" id="rocket" xmlns="http://www.w3.org/2000/svg">
<path d="M40.9467 5.75002C37.307 4.75864 33.0607 4.06466 28.41 4.06466C25.478 4.06466 22.8493 4.26294 20.625 4.65949L13.75 0H0.10114L5.9651 6.14656H14.4577C9.80697 7.73277 7.58272 9.61639 7.58272 9.61639V13.3836C7.58272 13.3836 9.90811 15.2672 14.5588 16.8534H5.86396L0 23H13.6489L20.5239 18.3405C22.8492 18.7371 25.3768 18.9354 28.3088 18.9354C32.8584 18.9354 37.1048 18.2414 40.8456 17.25C39.6324 15.4655 38.9246 13.5819 38.9246 11.4009C39.0257 9.4181 39.8345 7.5345 40.9467 5.75002Z" fill="#63D1BB"/>
<path d="M44.4853 6.74121C43.1709 8.32742 42.4632 9.91361 42.4632 11.4998C42.4632 13.086 43.1709 14.6722 44.4853 16.2585C50.9559 14.0774 55 11.4998 55 11.4998C55 11.4998 50.9559 8.92224 44.4853 6.74121Z" fill="#63D1BB"/>
</svg>
<svg width="33" height="32" viewBox="0 0 33 32" fill="none" id="gift" xmlns="http://www.w3.org/2000/svg">
<path d="M3.02752 32H15.6422V18.2716H3.02752V32ZM31.3853 8.69136H24.0183C24.5229 8.39506 25.0275 8.19753 25.4312 7.90123C27.0459 6.81481 27.8532 5.33333 27.8532 3.95062C27.8532 2.76543 27.2477 1.77777 26.4404 1.08641C25.633 0.395053 24.5229 0 23.4128 0C22.2018 0 20.9908 0.395053 20.0826 1.08641C18.5688 2.07406 17.4587 3.55555 16.6514 5.1358C16.6514 5.23456 16.5505 5.33333 16.5505 5.33333C16.2477 4.74073 15.945 4.14814 15.5413 3.55555C14.8349 2.56789 14.0275 1.679 13.0183 1.08641C12.0092 0.493818 10.8991 0 9.68807 0C8.47706 0 7.36697 0.49383 6.45871 1.28395C5.65137 2.07408 5.04587 3.16049 5.04587 4.34567C5.04587 5.03703 5.2477 5.82715 5.65137 6.51851C6.25687 7.4074 7.06422 8.09877 8.27523 8.69136H1.61467C0.706413 8.69136 0 9.38271 0 10.2716V16.0988H15.5413V8.69136H17.4587V16.0988H33V10.2716C33 9.38271 32.2936 8.69136 31.3853 8.69136ZM8.88073 6.41975C8.27522 6.02469 7.87155 5.62962 7.66972 5.33333C7.46788 4.93826 7.36696 4.64197 7.36696 4.34567C7.36696 3.85184 7.56881 3.35802 8.0734 2.86419C8.47707 2.46913 9.08256 2.17284 9.68807 2.17284C10.3945 2.17284 11.1009 2.37036 11.7064 2.86419C12.7156 3.55555 13.7248 4.64196 14.3303 6.02468C14.633 6.71604 14.9358 7.4074 15.1376 8.09876C12.0092 7.80246 9.99082 7.11111 8.88073 6.41975ZM19.4771 4.8395C20.0826 4.04938 20.6881 3.35802 21.3945 2.96296C22.1009 2.46914 22.8073 2.27161 23.4128 2.27161C24.0183 2.27161 24.5229 2.46914 24.9266 2.76543C25.3303 3.06173 25.5321 3.45679 25.5321 3.95062C25.5321 4.44444 25.2294 5.23456 24.0183 6.02468C22.9083 6.8148 20.8899 7.7037 17.8624 8.29629C18.1651 7.1111 18.7706 5.82715 19.4771 4.8395ZM17.4587 32H30.0734V18.2716H17.4587V32Z" fill="#63D1BB"/>
</svg>
<svg width="50" height="26" viewBox="0 0 50 26" fill="none" id="arrow-left" xmlns="http://www.w3.org/2000/svg">
<path d="M50 11H7.7L15.8 2.8L13 0L0 13L13 26L15.8 23.2L7.7 15H50V11Z" fill="black"/>
</svg>
<svg width="47" height="81" viewBox="0 0 47 81" fill="none" id="contact-flag" xmlns="http://www.w3.org/2000/svg">
<path d="M7.76611 3.86183V42.3812L47 23.072L7.76611 3.86183ZM0 80.9005V0H3.83261V80.9005H0Z" fill="#63D1BB"/>
<path d="M3.83262 0.0996094H0V81.0001H3.83262V0.0996094Z" fill="#231F20"/>
</svg>
<svg width="67" height="100" viewBox="0 0 67 100" fill="none" id="map-pin" xmlns="http://www.w3.org/2000/svg">
<path d="M57.1276 9.15178C44.0322 -3.05059 22.917 -3.05059 9.82159 9.15178C-3.27386 21.3542 -3.27386 41.0962 9.82159 53.2986C9.82159 53.2986 33.4746 74.9256 33.4746 99.9256C33.4746 74.9256 57.1276 53.2986 57.1276 53.2986C70.2231 41.1954 70.2231 21.3542 57.1276 9.15178Z" fill="white"/>
<path d="M47.6871 45.164C47.078 41.8902 47.7886 38.3188 47.6871 34.9458C47.5856 31.1759 46.9765 27.5053 46.9765 23.8347C46.9765 20.8585 47.4841 17.6839 46.4689 14.8069C46.5704 14.5093 46.5704 14.1124 46.672 13.8148C46.9765 12.3267 42.0023 13.1204 41.2917 14.4101C40.7841 14.8069 40.581 15.3029 40.7841 15.6997C40.8856 15.7989 40.8856 15.8982 40.8856 16.0966C39.972 20.5608 38.6523 24.8267 37.1295 29.1918C36.5204 30.8783 35.9114 32.4656 35.3023 34.0529C34.4901 32.5648 33.678 30.9775 32.9674 29.3902C31.0386 24.6283 29.2114 19.7672 26.8765 15.2037C27.1811 13.1204 22.3083 13.3188 21.3947 15.2037C20.278 17.5847 20.3795 19.9656 20.7856 22.4458C21.1917 25.3228 21.2932 28.1005 21.2932 30.9775C21.3947 36.5331 21.8007 41.9894 21.9023 47.545C21.3947 48.1402 21.2932 48.7355 21.8007 49.4299C22.0038 49.7275 22.3083 49.9259 22.6129 50.2235C23.9326 51.2156 27.5871 50.422 27.5871 48.4378C27.5871 42.6839 27.1811 37.0291 26.978 31.2751C26.978 30.6799 26.978 30.1839 26.978 29.5886C27.0795 29.787 27.1811 29.9855 27.1811 30.1839C28.0947 32.3664 29.0083 34.5489 30.328 36.6323C31.5462 38.7156 32.1553 40.8982 32.8659 43.0807C32.5614 43.3783 32.4598 43.6759 32.5614 44.0728C32.4598 44.3704 32.6629 44.4696 32.9674 44.5688C33.8811 45.3624 35.6068 44.9656 36.5204 44.5688C36.9265 44.3704 37.3326 44.172 37.7386 43.9735C38.2462 43.6759 38.9568 42.9815 38.7538 42.3862C38.7538 42.287 38.6523 42.0886 38.6523 41.9894C39.3629 40.2037 39.6674 38.418 40.0735 36.5331C40.4795 34.5489 41.1901 32.664 41.9007 30.7791C42.0023 31.672 42.0023 32.4656 42.1038 33.3585C42.4083 36.9299 42.1038 40.4021 42.1038 43.9735C42.1038 45.164 42.2053 46.2553 42.4083 47.3466C42.5098 47.8426 42.9159 49.8267 42.8144 49.9259C41.9007 50.7196 42.2053 51.7116 43.322 51.9101C44.6417 52.2077 46.2659 51.8109 47.281 50.918C48.9053 49.5291 48.0932 47.1482 47.6871 45.164Z" fill="#6BC6B3"/>
</svg>
<svg width="20" height="19" viewBox="0 0 20 19" fill="none" id="cart" xmlns="http://www.w3.org/2000/svg">
  <path d="M19.2271 7.23811H15.8454L12.5604 0.402108C12.3672 -9.09136e-06 11.9807 -0.100526 11.5942 0.100532C11.2077 0.301591 11.1111 0.703707 11.3043 1.10582L14.2995 7.23811H5.50723L8.50241 1.10582C8.69565 0.703707 8.50242 0.301591 8.21257 0.100532C7.82609 -0.100526 7.43962 0.10052 7.24638 0.402108L3.96133 7.23811H0.772936C0.386462 7.23811 0 7.53968 0 8.04233C0 8.44445 0.289844 8.84655 0.772936 8.84655H0.966184L1.83574 11.8624C1.64251 11.963 1.54587 12.164 1.54587 12.4656C1.54587 12.8677 1.83574 13.1693 2.22221 13.1693L3.86474 19H16.1353L17.7778 13.1693C18.1643 13.1693 18.4541 12.8677 18.4541 12.4656C18.4541 12.2645 18.3575 11.963 18.1643 11.8624L19.0338 8.84655H19.2271C19.6135 8.84655 20 8.54498 20 8.04233C20 7.53968 19.6135 7.23811 19.2271 7.23811ZM14.8792 17.3915H4.83092L3.67149 13.0688H16.1353L14.8792 17.3915ZM16.4251 11.5609H3.1884L2.41546 8.74605H17.1981L16.4251 11.5609Z" fill="black"/>
</svg>
<svg width="32" height="22" viewBox="0 0 32 22" fill="none" id="video" xmlns="http://www.w3.org/2000/svg">
<path d="M26 10L32 6V22L26 18V10ZM24 10V18C24 20.2 22.2 22 20 22H4C1.8 22 0 20.2 0 18V10C0 7.8 1.8 6 4 6H14C14 4.9 14.9 4 16 4V2H5C4.4 2 4 1.6 4 1C4 0.4 4.4 0 5 0H17C17.6 0 18 0.4 18 1V4C19.1 4 20 4.9 20 6C22.2 6 24 7.8 24 10ZM12 10H4V18H12V10ZM20 11C20 10.4 19.6 10 19 10H15C14.4 10 14 10.4 14 11C14 11.6 14.4 12 15 12H19C19.6 12 20 11.6 20 11Z" fill="#63D1BB"/>
</svg>
<svg viewBox="0 0 101 77" fill="none" id="play" xmlns="http://www.w3.org/2000/svg">
<path d="M97.2852 18.1472C97.2852 18.1472 96.3817 11.1289 93.4701 8.02085C89.8558 4.01044 85.7395 3.91016 83.9324 3.70964C70.5795 2.70703 50.5 2.70703 50.5 2.70703H50.3996C50.3996 2.70703 30.32 2.70703 16.9671 3.70964C15.0596 3.91016 11.0437 4.01044 7.42938 8.02085C4.61824 11.1289 3.61427 18.1472 3.61427 18.1472C3.61427 18.1472 2.71069 26.3685 2.71069 34.5899V42.3099C2.71069 50.5313 3.61427 58.7526 3.61427 58.7526C3.61427 58.7526 4.51785 65.7708 7.42938 68.8789C11.0437 72.8893 15.8628 72.7891 17.9711 73.1901C25.6013 73.9922 50.5 74.1927 50.5 74.1927C50.5 74.1927 70.5795 74.1927 83.9324 73.1901C85.8399 72.9896 89.8558 72.8893 93.4701 68.8789C96.2813 65.7708 97.2852 58.7526 97.2852 58.7526C97.2852 58.7526 98.1888 50.5313 98.1888 42.3099V34.5899C98.1888 26.3685 97.2852 18.1472 97.2852 18.1472Z" fill="#63D1BB"/>
<path d="M50.3996 77C49.3956 77 25.3002 76.6992 17.67 75.9974H17.5696H17.4692C17.168 75.8971 16.7664 75.8972 16.3648 75.7969C13.8549 75.4961 9.13618 74.8946 5.52187 70.7839C2.10835 67.1745 1.10437 59.9557 1.00398 59.1537C1.00398 58.8529 0 50.6315 0 42.4102V34.6901C0 26.3685 0.903588 18.2474 0.903588 17.9466V17.8463C1.00399 17.0443 2.10836 9.92577 5.42148 6.21613C9.43738 1.80467 13.9553 1.30339 16.164 1.10287C16.3648 1.10287 16.5656 1.10286 16.666 1.0026H16.7664C30.1193 0 50.1988 0 50.3996 0H50.5C50.7008 0 70.7803 0 84.1332 1.0026H84.2336C84.4344 1.0026 84.5348 1.00261 84.7356 1.10287C86.9443 1.30339 91.4622 1.80467 95.4781 6.21613C98.8917 9.8255 99.8956 17.0443 99.996 17.8463C99.996 18.1471 101 26.3685 101 34.6901V42.4102C101 50.7318 100.096 58.8529 99.996 59.1537V59.2539C99.8956 60.056 98.7913 67.2747 95.4781 70.8841C91.4622 75.2956 86.9443 75.7969 84.7356 75.9974C84.5348 75.9974 84.334 75.9974 84.2336 76.0977H84.1332C70.7803 77 50.6004 77 50.3996 77ZM18.3728 70.5833C25.9026 71.2852 49.6968 71.5859 50.5 71.5859C51.2028 71.5859 70.6799 71.5859 83.6312 70.5833C83.832 70.5833 84.0328 70.5833 84.2336 70.4831C86.0407 70.2826 88.8519 69.9818 91.4622 67.1745C93.2694 65.1693 94.3738 60.2565 94.5746 58.5521C94.675 58.0508 95.4781 50.1302 95.4781 42.4102V34.6901C95.4781 26.8698 94.5746 19.0495 94.4742 18.5482C94.173 16.1419 93.0686 11.7305 91.3618 10.026C88.7515 7.11849 85.9404 6.91795 84.1332 6.71743C83.9324 6.71743 83.7316 6.71746 83.5308 6.6172C70.3787 5.61459 50.6004 5.61459 50.3996 5.61459H50.2992C50.0984 5.61459 30.2197 5.61459 17.168 6.6172C16.9672 6.6172 16.7664 6.61717 16.5656 6.71743C14.7584 6.91795 11.9473 7.21875 9.337 10.026C7.52984 12.0313 6.42546 16.944 6.22466 18.6484C6.12427 19.25 5.32108 27.0703 5.32108 34.7904V42.5104C5.32108 50.2305 6.22466 58.1511 6.22466 58.6524C6.52586 61.0586 7.63024 65.4701 9.337 67.1745C11.6461 69.7813 14.6581 70.1823 16.8668 70.4831C17.4692 70.3828 17.8708 70.4831 18.3728 70.5833Z" fill="white"/>
<path d="M38.4521 20.5535V56.3464L68.3706 38.5001L38.4521 20.5535Z" fill="white"/>
</svg>
<svg width="28" height="23" viewBox="0 0 28 23" fill="none" id="vk" xmlns="http://www.w3.org/2000/svg">
<path d="M1 5.83876C1 4.98373 1.5151 4.52268 2.54531 4.45562L6.51515 4.48077C6.78158 4.48077 6.95921 4.60651 7.04802 4.85799C7.45655 6.11538 7.91392 7.20094 8.42014 8.11465C8.92637 9.02835 9.58801 10.0804 10.4051 11.2707C10.4761 11.4216 10.5916 11.497 10.7514 11.497C10.8758 11.497 10.9735 11.4384 11.0445 11.321L11.1244 11.0444L11.1511 6.69379C11.1511 6.39201 11.0756 6.19083 10.9246 6.09024C10.7736 5.98965 10.4939 5.9142 10.0853 5.86391C9.76563 5.81361 9.60577 5.62919 9.60577 5.31065C9.60577 5.24359 9.61465 5.19329 9.63241 5.15976C10.0054 4.07002 11.0711 3.52515 12.8296 3.52515L14.3216 3.5C14.9966 3.5 15.5561 3.65927 16.0001 3.97781C16.4442 4.29635 16.6662 4.79931 16.6662 5.48669V11.1953C16.7906 11.2791 16.906 11.321 17.0126 11.321C17.279 11.321 17.5099 11.1701 17.7053 10.8683C19.6592 8.28649 20.716 6.55966 20.8759 5.68787C20.8759 5.6711 20.8936 5.62919 20.9291 5.56213C21.0535 5.31065 21.2577 5.0927 21.5419 4.90828C21.8261 4.72387 22.0748 4.59813 22.288 4.53107C22.359 4.49753 22.4389 4.48077 22.5277 4.48077H26.6574L26.9239 4.50592C27.2791 4.50592 27.5544 4.66519 27.7498 4.98373C27.8209 5.08432 27.8697 5.19329 27.8964 5.31065C27.923 5.42801 27.9408 5.54536 27.9496 5.66272C27.9585 5.78008 27.963 5.84714 27.963 5.86391V6.03994C27.8386 6.72732 27.5233 7.4608 27.0171 8.24038C26.5109 9.01997 25.867 9.86243 25.0855 10.7678C24.304 11.6731 23.8155 12.2682 23.6201 12.5533C23.4603 12.7544 23.3803 12.9389 23.3803 13.1065C23.3803 13.2406 23.4514 13.3915 23.5935 13.5592L27.4834 18.1864C27.6965 18.4546 27.8031 18.748 27.8031 19.0666C27.8031 19.4522 27.6432 19.7707 27.3235 20.0222C27.0038 20.2737 26.6219 20.4162 26.1779 20.4497L25.7249 20.4749H21.6752C21.6574 20.4749 21.6219 20.479 21.5686 20.4874C21.5153 20.4958 21.4798 20.5 21.462 20.5C21.0712 20.5 20.7071 20.3407 20.3696 20.0222C20.2453 19.8881 19.4105 18.8989 17.8652 17.0547C17.7764 16.9374 17.652 16.8284 17.4922 16.7278C17.4211 16.9961 17.3279 17.3817 17.2124 17.8846C17.097 18.3876 17.0126 18.748 16.9593 18.966L16.8794 19.3935C16.7018 19.9803 16.3287 20.3323 15.7604 20.4497L15.3874 20.4749H12.7763C11.3021 20.4749 9.83224 19.8378 8.36686 18.5636C6.90148 17.2894 5.58264 15.6423 4.41034 13.622C3.23803 11.6018 2.14566 9.25049 1.13322 6.56805C1.04441 6.3501 1 6.107 1 5.83876ZM17.0126 12.3521C16.6396 12.3521 16.3021 12.2557 16.0001 12.0629C15.6982 11.8701 15.5472 11.606 15.5472 11.2707V5.48669C15.5472 5.15138 15.4584 4.91248 15.2808 4.76997C15.1032 4.62747 14.7923 4.55621 14.3483 4.55621L12.8296 4.60651C12.0658 4.60651 11.4886 4.73225 11.0978 4.98373C11.8793 5.3358 12.2701 5.90582 12.2701 6.69379V11.1198C12.2346 11.539 12.0569 11.8868 11.7372 12.1635C11.4175 12.4401 11.0623 12.5784 10.6715 12.5784C10.1386 12.5784 9.7301 12.3353 9.44591 11.8491C8.06046 9.87081 7.03025 7.9931 6.35529 6.21598L6.1155 5.56213L2.57195 5.53698C2.34104 5.53698 2.21227 5.54956 2.18562 5.5747C2.15898 5.59985 2.14566 5.6711 2.14566 5.78846C2.14566 5.93935 2.16342 6.09862 2.19895 6.26627L2.75845 7.67456C4.25048 11.3126 5.87127 14.1795 7.62085 16.2751C9.37042 18.3708 11.0889 19.4186 12.7763 19.4186H15.4406C15.5472 19.4186 15.6271 19.3893 15.6804 19.3306C15.7337 19.2719 15.7781 19.1588 15.8136 18.9911L15.8669 18.7396L16.3732 16.5266C16.5152 16.2249 16.6396 16.0237 16.7462 15.9231C16.9415 15.7387 17.1725 15.6465 17.4389 15.6465C17.8652 15.6465 18.3003 15.8895 18.7444 16.3757L21.0091 19.0917C21.1512 19.3097 21.3022 19.4186 21.462 19.4186H25.8581C26.391 19.4186 26.6574 19.2929 26.6574 19.0414C26.6574 18.9576 26.6308 18.8738 26.5775 18.7899L22.7142 14.2382C22.4123 13.8861 22.2613 13.5089 22.2613 13.1065C22.2613 12.7041 22.4034 12.3185 22.6876 11.9497C22.9185 11.6144 23.367 11.057 24.0331 10.2774C24.6992 9.49778 25.2809 8.76849 25.7782 8.0895C26.2756 7.4105 26.6042 6.79438 26.764 6.24112L26.8439 5.9142C26.8262 5.88067 26.8173 5.82618 26.8173 5.75074C26.8173 5.6753 26.8084 5.61243 26.7907 5.56213H22.6077C22.3412 5.66272 22.1281 5.81361 21.9682 6.01479L21.8084 6.4926C21.3643 7.64941 20.2009 9.43491 18.3181 11.8491C17.9451 12.1844 17.5099 12.3521 17.0126 12.3521Z" fill="#231F20"/>
<path d="M1 5.83876C1 4.98373 1.5151 4.52268 2.54531 4.45562L6.51515 4.48077C6.78158 4.48077 6.95921 4.60651 7.04802 4.85799C7.45655 6.11538 7.91392 7.20094 8.42014 8.11465C8.92637 9.02835 9.58801 10.0804 10.4051 11.2707C10.4761 11.4216 10.5916 11.497 10.7514 11.497C10.8758 11.497 10.9735 11.4384 11.0445 11.321L11.1244 11.0444L11.1511 6.69379C11.1511 6.39201 11.0756 6.19083 10.9246 6.09024C10.7736 5.98965 10.4939 5.9142 10.0853 5.86391C9.76563 5.81361 9.60577 5.62919 9.60577 5.31065C9.60577 5.24359 9.61465 5.19329 9.63241 5.15976C10.0054 4.07002 11.0711 3.52515 12.8296 3.52515L14.3216 3.5C14.9966 3.5 15.5561 3.65927 16.0001 3.97781C16.4442 4.29635 16.6662 4.79931 16.6662 5.48669V11.1953C16.7906 11.2791 16.906 11.321 17.0126 11.321C17.279 11.321 17.5099 11.1701 17.7053 10.8683C19.6592 8.28649 20.716 6.55966 20.8759 5.68787C20.8759 5.6711 20.8936 5.62919 20.9291 5.56213C21.0535 5.31065 21.2577 5.0927 21.5419 4.90828C21.8261 4.72387 22.0748 4.59813 22.288 4.53107C22.359 4.49753 22.4389 4.48077 22.5277 4.48077H26.6574L26.9239 4.50592C27.2791 4.50592 27.5544 4.66519 27.7498 4.98373C27.8209 5.08432 27.8697 5.19329 27.8964 5.31065C27.923 5.42801 27.9408 5.54536 27.9496 5.66272C27.9585 5.78008 27.963 5.84714 27.963 5.86391V6.03994C27.8386 6.72732 27.5233 7.4608 27.0171 8.24038C26.5109 9.01997 25.867 9.86243 25.0855 10.7678C24.304 11.6731 23.8155 12.2682 23.6201 12.5533C23.4603 12.7544 23.3803 12.9389 23.3803 13.1065C23.3803 13.2406 23.4514 13.3915 23.5935 13.5592L27.4834 18.1864C27.6965 18.4546 27.8031 18.748 27.8031 19.0666C27.8031 19.4522 27.6432 19.7707 27.3235 20.0222C27.0038 20.2737 26.6219 20.4162 26.1779 20.4497L25.7249 20.4749H21.6752C21.6574 20.4749 21.6219 20.479 21.5686 20.4874C21.5153 20.4958 21.4798 20.5 21.462 20.5C21.0712 20.5 20.7071 20.3407 20.3696 20.0222C20.2453 19.8881 19.4105 18.8989 17.8652 17.0547C17.7764 16.9374 17.652 16.8284 17.4922 16.7278C17.4211 16.9961 17.3279 17.3817 17.2124 17.8846C17.097 18.3876 17.0126 18.748 16.9593 18.966L16.8794 19.3935C16.7018 19.9803 16.3287 20.3323 15.7604 20.4497L15.3874 20.4749H12.7763C11.3021 20.4749 9.83224 19.8378 8.36686 18.5636C6.90148 17.2894 5.58264 15.6423 4.41034 13.622C3.23803 11.6018 2.14566 9.25049 1.13322 6.56805C1.04441 6.3501 1 6.107 1 5.83876ZM17.0126 12.3521C16.6396 12.3521 16.3021 12.2557 16.0001 12.0629C15.6982 11.8701 15.5472 11.606 15.5472 11.2707V5.48669C15.5472 5.15138 15.4584 4.91248 15.2808 4.76997C15.1032 4.62747 14.7923 4.55621 14.3483 4.55621L12.8296 4.60651C12.0658 4.60651 11.4886 4.73225 11.0978 4.98373C11.8793 5.3358 12.2701 5.90582 12.2701 6.69379V11.1198C12.2346 11.539 12.0569 11.8868 11.7372 12.1635C11.4175 12.4401 11.0623 12.5784 10.6715 12.5784C10.1386 12.5784 9.7301 12.3353 9.44591 11.8491C8.06046 9.87081 7.03025 7.9931 6.35529 6.21598L6.1155 5.56213L2.57195 5.53698C2.34104 5.53698 2.21227 5.54956 2.18562 5.5747C2.15898 5.59985 2.14566 5.6711 2.14566 5.78846C2.14566 5.93935 2.16342 6.09862 2.19895 6.26627L2.75845 7.67456C4.25048 11.3126 5.87127 14.1795 7.62085 16.2751C9.37042 18.3708 11.0889 19.4186 12.7763 19.4186H15.4406C15.5472 19.4186 15.6271 19.3893 15.6804 19.3306C15.7337 19.2719 15.7781 19.1588 15.8136 18.9911L15.8669 18.7396L16.3732 16.5266C16.5152 16.2249 16.6396 16.0237 16.7462 15.9231C16.9415 15.7387 17.1725 15.6465 17.4389 15.6465C17.8652 15.6465 18.3003 15.8895 18.7444 16.3757L21.0091 19.0917C21.1512 19.3097 21.3022 19.4186 21.462 19.4186H25.8581C26.391 19.4186 26.6574 19.2929 26.6574 19.0414C26.6574 18.9576 26.6308 18.8738 26.5775 18.7899L22.7142 14.2382C22.4123 13.8861 22.2613 13.5089 22.2613 13.1065C22.2613 12.7041 22.4034 12.3185 22.6876 11.9497C22.9185 11.6144 23.367 11.057 24.0331 10.2774C24.6992 9.49778 25.2809 8.76849 25.7782 8.0895C26.2756 7.4105 26.6042 6.79438 26.764 6.24112L26.8439 5.9142C26.8262 5.88067 26.8173 5.82618 26.8173 5.75074C26.8173 5.6753 26.8084 5.61243 26.7907 5.56213H22.6077C22.3412 5.66272 22.1281 5.81361 21.9682 6.01479L21.8084 6.4926C21.3643 7.64941 20.2009 9.43491 18.3181 11.8491C17.9451 12.1844 17.5099 12.3521 17.0126 12.3521Z" fill="#231F20"/>
</svg>
<svg width="28" height="23" viewBox="0 0 28 23" fill="none" id="youtube" xmlns="http://www.w3.org/2000/svg">
<path d="M17.8509 11.2927L12.6145 7.80184C12.5159 7.73691 12.4016 7.69985 12.2837 7.69459C12.1657 7.68934 12.0486 7.71608 11.9446 7.77198C11.8406 7.82789 11.7537 7.91087 11.693 8.01215C11.6324 8.11343 11.6002 8.22924 11.6 8.34729V15.3291C11.6001 15.4481 11.6327 15.5648 11.6942 15.6667C11.7557 15.7686 11.8438 15.8518 11.9491 15.9073C12.0524 15.9631 12.1691 15.9895 12.2864 15.9837C12.4037 15.978 12.5172 15.9402 12.6145 15.8746L17.8509 12.3837C17.9409 12.3239 18.0148 12.2429 18.0658 12.1477C18.1169 12.0526 18.1436 11.9462 18.1436 11.8382C18.1436 11.7302 18.1169 11.6239 18.0658 11.5287C18.0148 11.4335 17.9409 11.3525 17.8509 11.2927ZM12.9091 14.1073V9.56911L16.3127 11.8382L12.9091 14.1073ZM25.3891 5.54366C25.2942 5.17547 25.1131 4.83511 24.8609 4.55061C24.6086 4.26611 24.2924 4.04561 23.9382 3.90729C20.2182 2.4782 14.2509 2.50002 14 2.50002C13.7491 2.50002 7.78182 2.4782 4.06182 3.90729C3.70764 4.04561 3.3914 4.26611 3.13914 4.55061C2.88689 4.83511 2.70584 5.17547 2.61091 5.54366C2.32727 6.61275 2 8.57638 2 11.8382C2 15.1 2.32727 17.0637 2.61091 18.1327C2.70584 18.5009 2.88689 18.8413 3.13914 19.1258C3.3914 19.4103 3.70764 19.6308 4.06182 19.7691C7.78182 21.1982 13.7491 21.1764 14 21.1764H14.0764C14.8291 21.1764 20.3927 21.1327 23.9382 19.7691C24.2924 19.6308 24.6086 19.4103 24.8609 19.1258C25.1131 18.8413 25.2942 18.5009 25.3891 18.1327C25.6727 17.0637 26 15.1 26 11.8382C26 8.57638 25.6727 6.61275 25.3891 5.54366ZM24.1236 17.8055C24.0807 17.972 23.999 18.1259 23.8853 18.2548C23.7715 18.3838 23.6289 18.484 23.4691 18.5473C19.9782 19.8891 14.0655 19.8673 14 19.8673C13.9345 19.8673 8.02182 19.8891 4.53091 18.5473C4.37107 18.484 4.22846 18.3838 4.11471 18.2548C4.00096 18.1259 3.91929 17.972 3.87636 17.8055C3.61455 16.8018 3.30909 14.9582 3.30909 11.8382C3.30909 8.7182 3.61455 6.87457 3.87636 5.87093C3.91929 5.70445 4.00096 5.55047 4.11471 5.42156C4.22846 5.29264 4.37107 5.19243 4.53091 5.12911C8.02182 3.78729 13.9345 3.80911 14 3.80911C14.0655 3.80911 19.9782 3.78729 23.4691 5.12911C23.6289 5.19243 23.7715 5.29264 23.8853 5.42156C23.999 5.55047 24.0807 5.70445 24.1236 5.87093C24.3855 6.87457 24.6909 8.7182 24.6909 11.8382C24.6909 14.9582 24.3855 16.8018 24.1236 17.8055Z" fill="#231F20"/>
</svg>
<svg width="28" height="23" viewBox="0 0 28 23" fill="none" id="telegram" xmlns="http://www.w3.org/2000/svg">
<path fill-rule="evenodd" clip-rule="evenodd" d="M23.4608 3.65291C23.6393 3.80222 23.7255 4.0349 23.6872 4.26448L21.0611 20.0214C21.0244 20.2411 20.8789 20.4273 20.6745 20.5159C20.47 20.6045 20.2346 20.5833 20.0493 20.4597L12.1708 15.2074C12.0177 15.1054 11.9145 14.9437 11.8862 14.7619C11.858 14.58 11.9074 14.3947 12.0223 14.251L14.633 10.9877L10.273 13.8944C10.077 14.025 9.82597 14.0407 9.61524 13.9353L4.36293 11.3092C4.12769 11.1915 3.98535 10.9449 4.0012 10.6824C4.01705 10.4198 4.18804 10.1921 4.43573 10.1036L22.8188 3.53826C23.038 3.45998 23.2822 3.50359 23.4608 3.65291ZM6.32626 10.8228L9.86168 12.5905L17.4231 7.5495C17.6925 7.36994 18.0525 7.41349 18.2712 7.6521C18.49 7.8907 18.5022 8.25314 18.3 8.50591L13.495 14.5121L19.9328 18.8039L22.2083 5.15058L6.32626 10.8228Z" fill="#231F20"/>
</svg>
<svg width="27" height="34" viewBox="0 0 27 34" fill="currentColor" id="html-academy" xmlns="http://www.w3.org/2000/svg">
<path d="M13.6506 0H13.5502L0 1.39589V26.0235L13.5502 34L27 26.0235V1.39589L13.6506 0ZM25.0929 12.0645L13.5502 5.28446V5.18475H13.4498L13.3494 5.08504V5.18475L1.90706 12.0645V3.09091L13.4498 1.89443L25.0929 3.09091V12.0645ZM13.4498 6.78006L24.9926 13.4604L20.4758 16.0528L13.3494 11.8651V13.261L19.2714 16.7507L18.368 17.2493L13.3494 14.2581V15.654L17.1636 17.9472L16.3606 18.4457L13.3494 16.651V18.0469L15.2565 19.1437L13.4498 20.2405L2.00744 13.5601L13.4498 6.78006ZM1.90706 15.0557L13.3494 21.8358V22.8328L5.42007 18.1466V19.5425L13.4498 24.3284V25.4252L5.42007 20.739V22.1349L13.4498 26.9208L21.5799 22.0352V16.8504L24.9926 14.8563V24.827L13.4498 31.7067L1.90706 24.9267V15.0557Z"/>
</svg>
</svg>
