<svg width="125" height="35" viewBox="0 0 125 35" fill="none" xmlns="http://www.w3.org/2000/svg">
<g clip-path="url(#clip0_1159_2)">
<path d="M593.804 1C578.152 1 578.152 15 562.609 15C547.065 15 546.957 1 531.413 1C515.87 1 515.761 15 500.217 15C484.565 15 484.565 1 468.913 1C453.261 1 453.261 15 437.717 15C422.065 15 422.065 1 406.522 1C390.87 1 390.87 15 375.326 15C359.783 15 359.348 1 343.804 1C328.152 1 328.152 15 312.609 15C297.065 15 296.848 1 281.304 1C265.652 1 265.652 15 250.109 15C234.456 15 234.456 1 218.804 1C203.152 1 203.152 15 187.609 15C171.956 15 171.957 1 156.413 1C140.87 1 140.652 15 125 15C109.348 15 109.348 1 93.8043 1C78.1521 1 78.1521 15 62.6087 15C46.9565 15 46.9565 1 31.3043 1C15.6521 1 15.6521 15 0.108657 15C-15.5435 15 -15.5435 1 -31.0869 1C-46.7391 1 -46.7391 15 -62.2826 15C-77.9348 15 -77.9348 1 -93.4783 1C-109.13 1 -109.13 15 -124.783 15C-140.435 15 -140.435 1 -156.087 1C-171.739 1 -171.739 15 -187.391 15C-203.043 15 -203.043 1 -218.696 1C-234.348 1 -234.348 15 -250 15C-265.652 15 -265.652 1 -281.304 1C-296.957 1 -296.957 15 -312.609 15C-328.261 15 -328.261 1 -343.913 1C-359.565 1 -359.565 15 -375.109 15C-390.761 15 -390.761 1 -406.413 1C-422.065 1 -422.065 15 -437.717 15C-453.37 15 -453.37 1 -469.022 1C-484.674 1 -484.674 15 -500.326 15C-515.978 15 -515.978 1 -531.63 1C-546.848 1 -546.848 15 -562.5 15C-578.152 15 -578.152 1 -593.696 1C-609.239 1 -609.348 15 -625 15V35H625V15C609.348 15 609.348 1 593.804 1Z" fill="white"/>
</g>
<defs>
<clipPath id="clip0_1159_2">
<rect width="1150" height="3623" fill="white" transform="translate(-575 -816)"/>
</clipPath>
</defs>
</svg>
