<svg width="125" height="35" viewBox="0 0 125 35" fill="none" xmlns="http://www.w3.org/2000/svg">
<g clip-path="url(#clip0_1159_2)">
<path d="M718.804 1C703.152 1 703.152 15 687.609 15C672.065 15 671.957 1 656.413 1C640.87 1 640.761 15 625.217 15C609.565 15 609.565 1 593.913 1C578.261 1 578.261 15 562.717 15C547.065 15 547.065 1 531.522 1C515.87 1 515.87 15 500.326 15C484.783 15 484.348 1 468.804 1C453.152 1 453.152 15 437.609 15C422.065 15 421.848 1 406.304 1C390.652 1 390.652 15 375.109 15C359.456 15 359.456 1 343.804 1C328.152 1 328.152 15 312.609 15C296.956 15 296.957 1 281.413 1C265.87 1 265.652 15 250 15C234.348 15 234.348 1 218.804 1C203.152 1 203.152 15 187.609 15C171.956 15 171.956 1 156.304 1C140.652 1 140.652 15 125.109 15C109.456 15 109.457 1 93.9131 1C78.2609 1 78.2609 15 62.7174 15C47.0652 15 47.0652 1 31.5217 1C15.8696 1 15.8696 15 0.217395 15C-15.4348 15 -15.4348 1 -31.087 1C-46.7391 1 -46.7391 15 -62.3913 15C-78.0435 15 -78.0435 1 -93.6957 1C-109.348 1 -109.348 15 -125 15C-140.652 15 -140.652 1 -156.304 1C-171.957 1 -171.957 15 -187.609 15C-203.261 15 -203.261 1 -218.913 1C-234.565 1 -234.565 15 -250.109 15C-265.761 15 -265.761 1 -281.413 1C-297.065 1 -297.065 15 -312.717 15C-328.37 15 -328.37 1 -344.022 1C-359.674 1 -359.674 15 -375.326 15C-390.978 15 -390.978 1 -406.63 1C-421.848 1 -421.848 15 -437.5 15C-453.152 15 -453.152 1 -468.696 1C-484.239 1 -484.348 15 -500 15V35H750V15C734.348 15 734.348 1 718.804 1Z" fill="white"/>
</g>
<defs>
<clipPath id="clip0_1159_2">
<rect width="1150" height="3623" fill="white" transform="translate(-450 -816)"/>
</clipPath>
</defs>
</svg>
